# xmcd CD database file
#
# Track frame offsets:
#	150
#	16393
#	30826
#	47302
#	61742
#	75009
#	92139
#	109032
#	124844
#	141504
#	157623
#	172420
#	188185
#	205573
#	217056
#	237240
#
# Disc length: 3393 seconds
#
# Revision: 2
# Processed by: cddbd v1.5.2PL0 Copyright (c) Steve Scherf et al.
# Submitted via: CDex 1.51
#
DISCID=c60d3f10
DTITLE=Various Artist - Party Box CD1
DYEAR=2008
DGENRE=Country
TTITLE0=PETER WACKEL/Party, Palmen, Weiber und n Bier (Beach Mix)
TTITLE1=KRÜMEL/Oh wann kommst du
TTITLE2=TIM TOUPET/Eine neue Leber ist wie ein neues Leben
TTITLE3=PARTYGEIER/Das rote Pferd
TTITLE4=GUNTER BOMBE/Hände zum Himmel
TTITLE5=PS ROCKZZ/Irgendwann irgendwo irgendwie (Party-Version)
TTITLE6=DOC HOLIDAY/Westerland
TTITLE7=PAUL ZAPPEL feat. DJ HENNING/Joana - du geile Sau
TTITLE8=SILVIA KAUFMANN (MALLORCA KÖNIGIN)/Seemann 2007
TTITLE9=MARKUS BECKER feat. JÜRGEN DREWS/Aloha Heja He
TTITLE10=PHILIPP JOYO ENGEL/Zicke Zacke
TTITLE11=ROLLY KÖNIG/Nüchtern bin ich so schüchtern
TTITLE12=DIE ALPENPIRATEN/Cowboy und Indianer
TTITLE13=DIE 3 BESOFFSKIS/Scheiß egal ...
TTITLE14=BERT SILVER/Baby Blue - Feuer in deinen Augen (Fetenhit 2007)
TTITLE15=CHRISS TUXI/Und wer im Januar geboren ist
EXTD=YEAR: 2008
EXTT0=
EXTT1=
EXTT2=
EXTT3=
EXTT4=
EXTT5=
EXTT6=
EXTT7=
EXTT8=
EXTT9=
EXTT10=
EXTT11=
EXTT12=
EXTT13=
EXTT14=
EXTT15=
PLAYORDER=
